<?xml version="1.0" encoding="UTF-8" standalone="no"?>
<svg
   xmlns:dc="http://purl.org/dc/elements/1.1/"
   xmlns:cc="http://creativecommons.org/ns#"
   xmlns:rdf="http://www.w3.org/1999/02/22-rdf-syntax-ns#"
   xmlns:svg="http://www.w3.org/2000/svg"
   xmlns="http://www.w3.org/2000/svg"
   xmlns:sodipodi="http://sodipodi.sourceforge.net/DTD/sodipodi-0.dtd"
   xmlns:inkscape="http://www.inkscape.org/namespaces/inkscape"
   version="1.1"
   id="Capa_1"
   x="0px"
   y="0px"
   viewBox="0 0 393.92 393.92"
   style="enable-background:new 0 0 393.92 393.92;"
   xml:space="preserve"
   sodipodi:docname="kompass.svg"
   inkscape:version="1.0.1 (c497b03c, 2020-09-10)"><metadata
   id="metadata8501"><rdf:RDF><cc:Work
       rdf:about=""><dc:format>image/svg+xml</dc:format><dc:type
         rdf:resource="http://purl.org/dc/dcmitype/StillImage" /></cc:Work></rdf:RDF></metadata><defs
   id="defs8499" /><sodipodi:namedview
   pagecolor="#ffffff"
   bordercolor="#666666"
   borderopacity="1"
   objecttolerance="10"
   gridtolerance="10"
   guidetolerance="10"
   inkscape:pageopacity="0"
   inkscape:pageshadow="2"
   inkscape:window-width="1766"
   inkscape:window-height="984"
   id="namedview8497"
   showgrid="false"
   inkscape:zoom="1.4444557"
   inkscape:cx="51.576522"
   inkscape:cy="196.96001"
   inkscape:window-x="0"
   inkscape:window-y="23"
   inkscape:window-maximized="0"
   inkscape:current-layer="Capa_1" />
<g
   id="g8452">
	<g
   id="g8450"
   style="fill:#3c4858;fill-opacity:1">
		<path
   d="M336.224,57.68C299.333,20.694,249.222-0.064,196.984,0C88.206-0.013,0.013,88.159,0,196.937    S88.159,393.907,196.937,393.92s196.971-88.158,196.984-196.936C393.926,144.734,373.172,94.624,336.224,57.68z M328.024,327.96    l0,0.04c-72.35,72.393-189.689,72.428-262.082,0.078S-6.487,138.389,65.864,65.996s189.689-72.428,262.082-0.078    c34.759,34.738,54.297,81.86,54.318,131.002C382.34,246.077,362.819,293.237,328.024,327.96z"
   id="path8448"
   style="fill:#3c4858;fill-opacity:1" />
	</g>
</g>
<g
   id="g8458"
   style="fill:#3c4858;fill-opacity:1">
	<g
   id="g8456"
   style="fill:#3c4858;fill-opacity:1">
		<path
   d="M314.704,79.2c-31.195-31.255-73.561-48.788-117.72-48.72c-91.944,0.023-166.461,74.577-166.438,166.522    c0.023,91.944,74.577,166.461,166.522,166.438s166.461-74.577,166.438-166.522C363.494,152.76,345.939,110.414,314.704,79.2z     M202.744,351.64v-33c0-3.203-2.597-5.8-5.8-5.8s-5.8,2.597-5.8,5.8v32.96c-80.931-3.04-145.84-67.949-148.88-148.88h32.96    c3.203,0,5.8-2.597,5.8-5.8s-2.597-5.8-5.8-5.8h-32.96c3.021-80.962,67.958-145.899,148.92-148.92v32.96    c-0.004,3.203,2.589,5.803,5.792,5.807s5.803-2.589,5.807-5.792c0-0.005,0-0.01,0-0.015V42.2    c80.962,3.021,145.899,67.958,148.92,148.92h-33c-3.203,0.004-5.797,2.604-5.792,5.807c0.004,3.197,2.595,5.788,5.792,5.792h32.96    C348.643,283.682,283.705,348.619,202.744,351.64z"
   id="path8454"
   style="fill:#3c4858;fill-opacity:1" />
	</g>
</g>
<g
   id="g8464"
   style="fill:#3c4858;fill-opacity:1">
	<g
   id="g8462"
   style="fill:#3c4858;fill-opacity:1">
		<path
   d="M275.797,116.392c-0.018-0.011-0.035-0.021-0.053-0.032c-1.912-1.231-4.368-1.231-6.28,0l-46.28,29.28l-46.2,29.2    c-0.382,0.25-0.743,0.531-1.08,0.84c-0.323,0.349-0.618,0.723-0.88,1.12l-29.32,46.32l-29.24,46.28    c-1.709,2.709-0.898,6.291,1.811,8c1.891,1.193,4.298,1.193,6.189,0l46.4-29.28l46.12-28.92c0.471-0.293,0.926-0.614,1.36-0.96    c0.388-0.472,0.749-0.966,1.08-1.48l29.04-46l29.28-46.4C279.406,121.622,278.535,118.055,275.797,116.392z M164.624,238.4    l-24.68,15.6l15.6-24.68l25.44-40.4l12,12l12,12L164.624,238.4z M238.464,164.56l-25.48,40.36l-12-12l-12-12l40.24-25.4    l24.68-15.6L238.464,164.56z"
   id="path8460"
   style="fill:#3c4858;fill-opacity:1" />
	</g>
</g>
<g
   id="g8466">
</g>
<g
   id="g8468">
</g>
<g
   id="g8470">
</g>
<g
   id="g8472">
</g>
<g
   id="g8474">
</g>
<g
   id="g8476">
</g>
<g
   id="g8478">
</g>
<g
   id="g8480">
</g>
<g
   id="g8482">
</g>
<g
   id="g8484">
</g>
<g
   id="g8486">
</g>
<g
   id="g8488">
</g>
<g
   id="g8490">
</g>
<g
   id="g8492">
</g>
<g
   id="g8494">
</g>
</svg>
